<svg xmlns="http://www.w3.org/2000/svg" width="1024" height="1024" viewBox="0 0 1024 1024">
<g fill="none" stroke="black" stroke-width="1">
  <path d="M 744 3 Z" />
  <path d="M 0 0 L 0 20 L 1 21 L 0 22 L 0 62 L 2 62 L 3 63 L 3 64 L 2 65 L 1 64 L 0 64 L 0 97 L 1 98 L 0 99 L 0 267 L 1 268 L 0 269 L 0 428 L 1 429 L 0 430 L 0 1023 L 1023 1023 L 1023 398 L 1022 397 L 1023 396 L 1023 214 L 1022 213 L 1023 212 L 1023 198 L 1022 197 L 1023 196 L 1023 187 L 1022 186 L 1023 185 L 1023 156 L 1022 155 L 1023 154 L 1023 135 L 1022 134 L 1023 133 L 1023 121 L 1022 120 L 1023 119 L 1022 119 L 1021 118 L 1022 117 L 1023 117 L 1023 109 L 1022 108 L 1023 107 L 1023 104 L 1022 104 L 1021 103 L 1022 102 L 1023 102 L 1023 100 L 1022 99 L 1023 98 L 1021 98 L 1020 97 L 1021 96 L 1023 96 L 1023 94 L 1021 94 L 1020 93 L 1021 92 L 1023 92 L 1023 89 L 1022 89 L 1021 88 L 1022 87 L 1023 87 L 1023 85 L 1022 84 L 1023 83 L 1023 77 L 1021 77 L 1020 76 L 1020 75 L 1021 74 L 1022 75 L 1023 75 L 1023 70 L 1022 69 L 1023 68 L 1023 62 L 1022 61 L 1023 60 L 1023 59 L 1022 58 L 1023 57 L 1023 54 L 1022 54 L 1021 53 L 1022 52 L 1023 52 L 1023 49 L 1022 48 L 1022 47 L 1023 46 L 1023 44 L 1021 42 L 1023 40 L 1023 39 L 1022 39 L 1021 40 L 1020 39 L 1020 38 L 1021 37 L 1021 36 L 1022 35 L 1023 36 L 1023 29 L 1021 27 L 1022 26 L 1023 26 L 1023 23 L 1023 24 L 1022 25 L 1021 25 L 1020 24 L 1020 23 L 1022 21 L 1023 21 L 1022 21 L 1021 20 L 1022 19 L 1022 17 L 1023 16 L 1023 13 L 1022 14 L 1020 12 L 1021 11 L 1023 11 L 1023 9 L 1022 9 L 1021 8 L 1022 7 L 1023 7 L 1023 5 L 1022 4 L 1021 4 L 1020 3 L 1021 2 L 1023 2 L 1022 2 L 1021 1 L 1022 0 L 1014 0 L 1015 0 L 1016 1 L 1016 2 L 1016 1 L 1017 0 L 1018 0 L 1019 1 L 1018 2 L 1018 3 L 1019 3 L 1020 4 L 1019 5 L 1017 5 L 1016 4 L 1015 4 L 1012 1 L 1012 0 L 1012 1 L 1011 2 L 1010 1 L 1009 1 L 1008 0 L 1007 0 L 1006 1 L 1005 1 L 1004 2 L 1002 0 L 1001 0 L 1001 1 L 1000 2 L 998 0 L 996 2 L 995 1 L 995 0 L 991 0 L 994 0 L 995 1 L 995 2 L 994 3 L 993 2 L 992 2 L 991 3 L 989 1 L 989 0 L 988 0 L 986 2 L 984 0 L 983 1 L 982 0 L 975 0 L 976 0 L 977 1 L 978 1 L 980 3 L 979 4 L 978 4 L 977 3 L 974 3 L 973 2 L 973 0 L 972 1 L 970 1 L 969 0 L 952 0 L 951 1 L 950 0 L 948 2 L 947 1 L 944 1 L 943 0 L 942 1 L 941 0 L 940 1 L 939 0 L 938 0 L 937 1 L 936 0 L 937 1 L 936 2 L 935 2 L 933 0 L 928 0 L 927 1 L 926 1 L 925 0 L 921 0 L 920 1 L 919 0 L 915 0 L 914 1 L 913 0 L 911 0 L 912 1 L 912 2 L 911 3 L 909 1 L 908 2 L 907 1 L 907 0 L 906 1 L 905 0 L 904 0 L 903 1 L 900 1 L 899 0 L 897 0 L 895 2 L 893 0 L 892 1 L 891 0 L 887 0 L 885 2 L 885 4 L 884 5 L 883 4 L 883 3 L 882 2 L 884 0 L 882 0 L 883 1 L 882 2 L 881 2 L 880 1 L 880 0 L 879 1 L 878 0 L 877 0 L 877 1 L 876 2 L 875 1 L 874 1 L 873 0 L 872 1 L 871 0 L 870 1 L 869 0 L 869 1 L 868 2 L 867 1 L 867 0 L 865 0 L 866 1 L 867 1 L 868 2 L 868 3 L 867 4 L 866 3 L 865 3 L 864 2 L 863 3 L 862 2 L 862 1 L 863 0 L 862 1 L 861 0 L 858 0 L 859 1 L 859 2 L 860 2 L 862 4 L 862 5 L 863 6 L 862 7 L 860 7 L 859 6 L 860 5 L 859 5 L 857 3 L 857 2 L 856 1 L 856 0 L 853 0 L 853 1 L 852 2 L 851 2 L 850 1 L 850 0 L 846 0 L 845 1 L 844 1 L 843 0 L 843 2 L 844 3 L 843 4 L 842 4 L 843 5 L 843 6 L 842 7 L 841 6 L 840 6 L 839 5 L 839 4 L 841 2 L 840 1 L 841 0 L 836 0 L 835 1 L 834 0 L 823 0 L 824 1 L 823 2 L 822 2 L 820 0 L 819 1 L 818 0 L 816 0 L 815 1 L 814 1 L 813 0 L 809 0 L 808 1 L 807 0 L 805 0 L 805 1 L 804 2 L 803 1 L 803 0 L 800 0 L 799 1 L 798 0 L 799 1 L 799 2 L 798 3 L 796 1 L 796 0 L 789 0 L 789 1 L 788 2 L 786 2 L 785 1 L 785 0 L 781 4 L 780 3 L 780 4 L 779 5 L 778 4 L 778 6 L 777 7 L 776 6 L 776 5 L 775 5 L 774 4 L 776 2 L 778 2 L 779 1 L 781 1 L 781 0 L 780 0 L 779 1 L 778 0 L 775 0 L 777 0 L 778 1 L 777 2 L 774 2 L 773 1 L 772 2 L 771 1 L 771 0 L 768 0 L 768 1 L 766 3 L 765 2 L 765 1 L 766 0 L 764 0 L 763 1 L 761 1 L 760 0 L 759 0 L 760 0 L 761 1 L 761 2 L 760 3 L 759 3 L 757 1 L 756 1 L 755 0 L 751 0 L 750 1 L 749 0 L 744 0 L 746 2 L 746 3 L 747 4 L 746 5 L 745 5 L 744 6 L 742 4 L 742 0 L 742 1 L 741 2 L 739 0 L 737 0 L 738 1 L 737 2 L 736 2 L 735 1 L 735 0 L 725 0 L 724 1 L 723 0 L 711 0 L 710 1 L 709 1 L 710 2 L 709 3 L 708 3 L 707 2 L 707 0 L 703 0 L 702 1 L 701 0 L 700 1 L 699 0 L 696 0 L 695 1 L 694 0 L 688 0 L 689 1 L 688 2 L 686 2 L 685 1 L 685 0 L 681 0 L 680 1 L 679 1 L 678 0 L 668 0 L 669 0 L 670 1 L 669 2 L 667 2 L 666 1 L 666 0 L 666 1 L 665 2 L 664 1 L 664 0 L 663 1 L 662 0 L 659 0 L 658 1 L 657 0 L 639 0 L 640 1 L 638 3 L 637 2 L 637 0 L 636 0 L 635 1 L 634 1 L 633 2 L 632 1 L 631 2 L 630 1 L 630 0 L 630 1 L 631 2 L 630 3 L 629 3 L 628 2 L 628 0 L 628 1 L 627 2 L 625 0 L 625 1 L 623 3 L 622 2 L 622 0 L 622 1 L 621 2 L 619 0 L 616 0 L 615 1 L 614 0 L 610 0 L 609 1 L 608 0 L 602 0 L 601 1 L 600 0 L 592 0 L 590 2 L 589 2 L 588 1 L 587 1 L 586 0 L 585 0 L 584 1 L 583 0 L 579 0 L 577 2 L 576 2 L 575 1 L 575 0 L 574 1 L 573 0 L 567 0 L 566 1 L 565 0 L 565 1 L 564 2 L 562 0 L 553 0 L 554 1 L 554 2 L 553 3 L 551 1 L 551 0 L 549 0 L 550 1 L 549 2 L 548 2 L 547 1 L 547 0 L 544 0 L 544 3 L 543 4 L 542 3 L 542 1 L 541 0 L 539 0 L 539 2 L 538 3 L 536 1 L 537 0 L 536 1 L 535 0 L 531 0 L 532 1 L 531 2 L 530 2 L 529 1 L 529 0 L 526 0 L 526 1 L 525 2 L 524 1 L 524 0 L 523 0 L 522 1 L 521 0 L 519 0 L 520 1 L 518 3 L 517 2 L 517 0 L 508 0 L 507 1 L 506 0 L 505 0 L 504 1 L 503 1 L 502 0 L 484 0 L 484 1 L 483 2 L 481 2 L 480 1 L 480 0 L 476 0 L 476 1 L 475 2 L 474 1 L 474 0 L 473 1 L 472 0 L 471 0 L 470 1 L 469 0 L 459 0 L 458 1 L 457 0 L 456 0 L 455 1 L 454 0 L 453 1 L 452 0 L 452 1 L 451 2 L 449 0 L 447 0 L 446 1 L 445 0 L 444 1 L 443 1 L 442 0 L 437 0 L 436 1 L 435 1 L 434 0 L 422 0 L 421 1 L 420 0 L 419 0 L 418 1 L 417 0 L 409 0 L 409 1 L 408 2 L 407 1 L 407 0 L 399 0 L 398 1 L 397 0 L 397 1 L 396 2 L 394 0 L 393 0 L 392 1 L 391 0 L 371 0 L 370 1 L 369 1 L 368 0 L 366 0 L 365 1 L 364 1 L 363 0 L 360 0 L 359 1 L 358 1 L 357 0 L 355 0 L 354 1 L 353 0 L 348 0 L 347 1 L 346 0 L 346 1 L 345 2 L 344 1 L 344 0 L 343 0 L 342 1 L 341 0 L 337 0 L 336 1 L 335 0 L 332 0 L 331 1 L 330 0 L 331 1 L 330 2 L 329 2 L 328 1 L 328 0 L 322 0 L 321 1 L 320 0 L 307 0 L 306 1 L 305 0 L 291 0 L 290 1 L 289 0 L 288 0 L 288 1 L 287 2 L 286 1 L 286 0 L 276 0 L 275 1 L 274 0 L 266 0 L 265 1 L 264 0 L 239 0 L 238 1 L 237 0 L 232 0 L 231 1 L 230 1 L 229 0 L 226 0 L 225 1 L 224 0 L 215 0 L 214 1 L 213 1 L 212 0 L 210 0 L 210 1 L 211 2 L 210 3 L 209 3 L 208 2 L 208 0 L 208 2 L 207 3 L 204 0 L 178 0 L 177 1 L 176 0 L 175 0 L 174 1 L 173 0 L 165 0 L 164 1 L 163 0 L 161 0 L 160 1 L 159 0 L 127 0 L 126 1 L 125 0 L 126 1 L 125 2 L 124 2 L 123 1 L 123 0 L 122 1 L 121 1 L 120 0 L 103 0 L 103 1 L 102 2 L 101 1 L 101 0 L 98 0 L 97 1 L 96 1 L 95 0 L 94 0 L 93 1 L 92 0 L 91 1 L 90 0 L 76 0 L 75 1 L 74 1 L 73 0 L 54 0 L 53 1 L 52 0 L 42 0 L 41 1 L 40 0 L 18 0 L 17 1 L 16 0 L 15 0 L 14 1 L 13 0 Z" />
</g>
</svg>